<svg xmlns="http://www.w3.org/2000/svg" viewBox="0 0 1054.54 256.19">
  <title>logo-waratah-transport-text</title>
  <g>
    <path d="M283.63,236.56a2.12,2.12,0,0,1-2.12-2.11V18.67a2.12,2.12,0,0,1,4.23,0V234.45a2.1,2.1,0,0,1-2.11,2.11" style="fill: #192040"/>
    <path d="M59.57,183.73,23.91,142.1H8.8v65.23H23.51V165.7l35.56,41.59H74.28V142.1H59.57ZM200.84,142.1l-9.76,41.76L180.83,142.1h-14.1l-10.41,41.29-9.47-41.29h-15.4l17,65.22h15.16l10-41.26,10.16,41.26h14.89l.16-.56L216,142.1Z" style="fill: #192040"/>
    <path d="M7.23,227.29v0A10.31,10.31,0,0,1,17.41,216.8h.29a11,11,0,0,1,7.79,2.74l-2.26,2.68a8,8,0,0,0-5.68-2.12c-3.74,0-6.57,3.25-6.57,7.12v.06c0,4.15,2.74,7.21,6.89,7.21a8.28,8.28,0,0,0,4.9-1.53V229.1H17.58v-3h8.64v8.48a13,13,0,0,1-8.47,3.15c-6.34,0-10.52-4.51-10.52-10.39" style="fill: #192040"/>
    <path d="M28.37,227.29v0a10.37,10.37,0,0,1,10.3-10.44H39a10.28,10.28,0,0,1,10.57,10v.48a10.37,10.37,0,0,1-10.3,10.44H39a10.28,10.28,0,0,1-10.58-10v-.42m17.48,0v0a6.93,6.93,0,0,0-6.72-7.14H39a6.83,6.83,0,0,0-6.85,6.81c0,.11,0,.21,0,.31v.06a6.94,6.94,0,0,0,6.68,7.18h.22a6.85,6.85,0,0,0,6.85-6.83c0-.1,0-.2,0-.3" style="fill: #192040"/>
    <polyline points="49.33 217.14 53.27 217.14 59.38 232.66 65.47 217.14 69.33 217.14 60.89 237.48 57.76 237.48 49.33 217.14" style="fill: #192040"/>
    <polyline points="71.73 217.14 86.77 217.14 86.77 220.31 75.3 220.31 75.3 225.57 85.47 225.57 85.47 228.74 75.3 228.74 75.3 234.16 86.92 234.16 86.92 237.33 71.73 237.33 71.73 217.14" style="fill: #192040"/>
    <path d="M90.38,217.1h9a8.23,8.23,0,0,1,5.85,2,6,6,0,0,1,1.68,4.36v.06c0,3.31-2,5.3-4.84,6.11l5.48,7.64h-4.21l-5-7h-4.4v7H90.38Zm8.77,10c2.55,0,4.18-1.33,4.18-3.38h0c0-2.17-1.56-3.34-4.21-3.34H93.94v6.77Z" style="fill: #192040"/>
    <polyline points="110.09 217.14 113.39 217.14 124.26 231.09 124.26 217.14 127.77 217.14 127.77 237.33 124.78 237.33 113.59 222.96 113.59 237.33 110.09 237.33 110.09 217.14" style="fill: #192040"/>
    <polyline points="131.39 217.14 135.18 217.14 141.36 226.69 147.53 217.14 151.33 217.14 151.33 237.33 147.76 237.33 147.76 222.85 141.36 232.37 141.24 232.37 134.9 222.91 134.9 237.33 131.39 237.33 131.39 217.14" style="fill: #192040"/>
    <polyline points="154.73 217.14 169.76 217.14 169.76 220.31 158.29 220.31 158.29 225.57 168.46 225.57 168.46 228.74 158.29 228.74 158.29 234.16 169.91 234.16 169.91 237.33 154.73 237.33 154.73 217.14" style="fill: #192040"/>
    <polyline points="173.42 217.14 176.73 217.14 187.59 231.09 187.59 217.14 191.1 217.14 191.1 237.33 188.12 237.33 176.93 222.96 176.93 237.33 173.42 237.33 173.42 217.14" style="fill: #192040"/>
    <polyline points="200.35 220.43 193.92 220.43 193.92 217.14 210.38 217.14 210.38 220.43 203.95 220.43 203.95 237.33 200.35 237.33 200.35 220.43" style="fill: #192040"/>
    <path d="M78.33,198.21,87,187.88c6,4.93,12.26,8.06,19.88,8.06,6,0,9.61-2.38,9.61-6.25v-.19c0-3.7-2.29-5.59-13.42-8.43C89.65,177.66,81,174,81,160.81v-.19c0-12,9.71-20,23.31-20A38.76,38.76,0,0,1,129,149.1l-7.61,11c-5.91-4.07-11.71-6.54-17.32-6.54s-8.56,2.57-8.56,5.79v.18c0,4.36,2.85,5.78,14.36,8.71,13.55,3.45,21.13,8.28,21.13,19.86v.18c0,13.16-10.08,20.55-24.45,20.55a42.49,42.49,0,0,1-28.25-10.6" style="fill: #192040"/>
    <path d="M51.77,98.75c5.72,9.9,13.23,16.5,21.72,19.29a29.9,29.9,0,0,0,8.33,1.49c-.53-.41-1.09-.86-1.65-1.33a37.24,37.24,0,0,1-11.41-17.1C66,92.48,64.59,82.28,64.59,70.8a167.35,167.35,0,0,1,3.49-33.25v-.19a7.11,7.11,0,0,1,3.48-4.86c-.77-.5-1.54-1-2.31-1.45A174.11,174.11,0,0,0,47,19.33c-1.2-.56-1.85-.79-1.86-.79h0a3.23,3.23,0,0,0-1.3-.28c-1.38,0-2.2.84-2.5,2.44,0,0-.33,2.37-.7,6.42-.35,3.69-.76,9.55-.76,16.52,0,1.85,0,3.8.1,5.81.5,15.08,3.12,34.22,11.78,49.31" style="fill: #bd2532"/>
    <path d="M120.86,121.86h.08a23.59,23.59,0,0,0,9.37-2.26c.73-.33,1.46-.7,2.19-1.1a32.25,32.25,0,0,0,15.32-18.82c2.56-8.24,3.86-18,3.86-28.91a167.56,167.56,0,0,0-2.83-29.9c-.34-1.64-.52-2.54-.52-2.54-.21-.78-.6-1.75-1.31-1.75a1.78,1.78,0,0,0-1,.44s-.38.28-1.06.87-1.67,1.39-3,2.59a134.82,134.82,0,0,0-9.83,9.74c-6.83,7.57-15.89,19.5-20.18,33.31-2.48,8.06-3.72,15-3.68,20.74a24,24,0,0,0,2,10.73,12.11,12.11,0,0,0,6.14,6.07,11.07,11.07,0,0,0,4.48.79" style="fill: #bd2532"/>
    <g>
      <path d="M108.17,79.86c.1-.3.21-.6.3-.9-9-22.35-29.79-39.2-32.14-41-.74-.6-1.12-.89-1.12-.89a2.14,2.14,0,0,0-1.08-.44c-.72,0-1.16,1-1.4,1.78,0,.15-.21,1-.52,2.52-.23,1.14-.68,3.57-1.18,7a163.73,163.73,0,0,0-1.7,22.88c0,11.11,1.32,20.82,3.91,28.86a32.47,32.47,0,0,0,16.27,19.19,4.48,4.48,0,0,1,.86.4,25.14,25.14,0,0,0,10.41,2.64h.08a11.2,11.2,0,0,0,6.8-2,18,18,0,0,1-1.69-2.84,29.91,29.91,0,0,1-2.54-12.75c0-6.36,1.39-13.8,4-22.13.22-.76.49-1.54.76-2.29" style="fill: #bd2532"/>
      <path d="M110.93,72.92c4.63-9.93,11.68-19.81,21-29.41a197.06,197.06,0,0,0-8.47-21.17A203.1,203.1,0,0,0,113.16,3L112,1.16C111.27.1,110.67,0,110.51,0c-.5,0-1,.39-1.54,1.18,0,0-.44.62-1.12,1.77-1,1.72-2,3.4-3,5.14-1.83,3.24-4.46,8.13-7.27,14.16-.61,1.32-1.24,2.68-1.86,4.11-2.4,5.41-4.59,11-6.5,16.76C95.94,49.81,105,60.25,111,72.92" style="fill: #bd2532"/>
    </g>
    <path d="M149.44,32.44a7,7,0,0,1,3.5,4.86,1.74,1.74,0,0,0,.05.22,170.31,170.31,0,0,1,3.43,33.25c0,11.42-1.37,21.61-4.06,30.3a37.34,37.34,0,0,1-11.17,17.11c-.55.47-1.09.92-1.62,1.33a29.68,29.68,0,0,0,7.86-1.48c8.5-2.78,16-9.36,21.77-19.28,8.69-15.15,11.3-34.37,11.8-49.49.06-1.94.1-3.83.1-5.63,0-5.56-.26-11.13-.76-16.58-.38-4-.71-6.37-.71-6.39a2.52,2.52,0,0,0-2.54-2.41,3.16,3.16,0,0,0-1.25.28h0s-.66.23-1.85.78-2.7,1.19-4.64,2.09l-.68.32A179.26,179.26,0,0,0,151.87,31c-.17.1-.34.19-.5.3-.63.35-1.26.75-1.88,1.15" style="fill: #bd2532"/>
    <path d="M134.7,37.1a163.19,163.19,0,0,1,16.09-11c.33-.19.63-.39,1-.59A168.94,168.94,0,0,0,147.08,7.1L147,6.91A2.51,2.51,0,0,0,144.13,5h0a2.36,2.36,0,0,0-1.11.45h0s-2.66,1.66-6.63,4.46c-2.2,1.57-5.69,4.16-10,7.68.33.69.62,1.41,1,2.1,2.71,5.75,5.19,11.57,7.32,17.39" style="fill: #bd2532"/>
    <path d="M86.26,37.1a183.26,183.26,0,0,1,7.33-17.49c.32-.66.62-1.33,1-2-3.37-2.79-6.73-5.37-10-7.68C80.61,7.1,78,5.5,78,5.48h0A2.36,2.36,0,0,0,76.89,5h0a3.84,3.84,0,0,0-.48,0A2.57,2.57,0,0,0,74,7a.62.62,0,0,1-.07.19,170.07,170.07,0,0,0-4.66,18.32l1,.56a162,162,0,0,1,16,11" style="fill: #bd2532"/>
    <path d="M22.58,75.32c4.9-2.38,9.77-4.52,14.49-6.3a147.44,147.44,0,0,1-1.76-18.28c0-.85-.08-1.68-.1-2.54-2.05-.19-3.94-.33-5.69-.44-3.59-.24-6.52-.32-8.58-.35H19.08c-3.44,0-5.44.1-5.46.1h0a4.49,4.49,0,0,0-3.42,2,4.39,4.39,0,0,0-.71,2.59C9.74,54.46,11.31,63,21.56,75.85c.34-.17.68-.31,1-.48" style="fill: #bd2532"/>
    <path d="M199.41,75.8C209.68,62.91,211.24,54.36,211.47,52a4.78,4.78,0,0,0-.69-2.5,4.54,4.54,0,0,0-3.44-2s-1.51-.07-4.07-.09H200c-2.27,0-5.57.13-9.65.41-1.45.1-3,.23-4.62.38,0,.86-.11,1.69-.15,2.54a160.07,160.07,0,0,1-1.71,18.28c4.74,1.79,9.65,3.94,14.58,6.35l.93.43" style="fill: #bd2532"/>
    <path d="M219.24,93.1l-1.6-1h0c-.77-.59-1.89-1.32-3.3-2.24l-1.18-.76c-2-1.29-4.74-3-8-4.79l-.81-.46h0c-2.18-1.21-4.57-2.49-7.15-3.77-.45-.23-.9-.41-1.35-.64-4.3-2.11-8.58-4-12.77-5.58a90.59,90.59,0,0,1-9.79,27.24,49.55,49.55,0,0,1-14.64,16.5c-.77.54-1.55,1-2.35,1.52,48.74-2.63,62.49-18.24,63.93-20h0a4.57,4.57,0,0,0,.44-.92,4.36,4.36,0,0,0,.28-1.47,4.46,4.46,0,0,0-1.71-3.63" style="fill: #bd2532"/>
    <path d="M62.27,117.6a50.45,50.45,0,0,1-14.59-16.5,90.45,90.45,0,0,1-9.76-27.32c-4.5,1.7-8.75,3.57-12.67,5.48L23,80.4A169.38,169.38,0,0,0,3.28,92.1c-1,.71-1.55,1.08-1.58,1.1A4.39,4.39,0,0,0,0,96.67a4.22,4.22,0,0,0,.48,1.87c.08.17.14.35.24.52l.09.12.32.38.19.23A23.06,23.06,0,0,0,3.66,102a49.21,49.21,0,0,0,11.67,7c12.27,5.54,29.29,9,49.34,10.15-.82-.49-1.61-1-2.4-1.57" style="fill: #bd2532"/>
    <path d="M176.93,122.67A103.45,103.45,0,0,0,165.15,124l-2.61.35a68.41,68.41,0,0,1-9.38.5c-2.42,0-4.93,0-7.59-.11h-.23c-2.53,0-5.4-.12-8.27-.12-2.19,0-4.64.07-7.16.2A71.26,71.26,0,0,0,119.72,126c-1,.21-2.12.4-3.15.68a.77.77,0,0,0-.55.7c0,.23.45.3.8.3h.32c2.7-.23,5.31-.35,7.77-.35a77.55,77.55,0,0,1,20.82,3c5.51,1.39,10.72,2.7,18,2.7s13.1-1.47,15.85-3.94a5.24,5.24,0,0,0,.5-.44,3.86,3.86,0,0,0,1.14-3,6.78,6.78,0,0,0-.19-1c-.36-1.34-1.3-2-4.06-2" style="fill: #bd2532"/>
    <g>
      <path d="M104.39,126.69c-1-.29-2.1-.47-3.16-.68a70.06,70.06,0,0,0-10-1.24c-2.57-.14-5.08-.21-7.3-.21h0c-2.87,0-5.74.07-8.27.12h-.24c-2.66.06-5.16.11-7.59.11a68.55,68.55,0,0,1-9.39-.5c-.92-.13-1.82-.24-2.66-.37A103.4,103.4,0,0,0,44,122.67c-2.46,0-3.46.5-3.91,1.58a5.16,5.16,0,0,0-.31,1.4,3.77,3.77,0,0,0,1.09,3,8.16,8.16,0,0,0,1.28,1.07c3,2.07,8.54,3.33,15.11,3.33,7.25,0,12.46-1.31,18-2.7,5.87-1.48,11.93-3,20.82-3,2.45,0,5.07.12,7.76.35h.32c.35,0,.78-.07.81-.29a.77.77,0,0,0-.56-.71" style="fill: #bd2532"/>
      <path d="M734.29,209.45v1.46c0,2.34,0,5.14-.1,6.24l-.17,1.44a11.85,11.85,0,0,1-1.45,4.25,10.08,10.08,0,0,1-3.66,3.59,13.39,13.39,0,0,1-7,1.51,20.12,20.12,0,0,1-3.55-.32,8.73,8.73,0,0,1-3-1.13,5.75,5.75,0,0,1-2-2.21,7,7,0,0,1-.76-3.43,7.27,7.27,0,0,1,.76-3.55,6.84,6.84,0,0,1,2-2.31,10.14,10.14,0,0,1,2.9-1.46,28.32,28.32,0,0,1,3.38-.85c1.22-.22,2.44-.4,3.65-.55s2.39-.32,3.5-.53a23.82,23.82,0,0,0,3.12-.81A7.1,7.1,0,0,0,734.29,209.45Zm-34.43-16.18c-1.25,3.7,1.62,4.9,3.89,4.9h6.31c5.88,0,3.62-3.81,7.25-6.45a11.75,11.75,0,0,1,7.09-2,25.51,25.51,0,0,1,3.81.28,8.64,8.64,0,0,1,3.12,1.07,6,6,0,0,1,2.15,2.26,8.18,8.18,0,0,1,.81,3.92,4.13,4.13,0,0,1-1.4,3.61,10.39,10.39,0,0,1-4.09,1.88,40.62,40.62,0,0,1-5.9,1q-3.35.33-6.78.86a63.83,63.83,0,0,0-6.83,1.46,19.31,19.31,0,0,0-6,2.74,14,14,0,0,0-4.3,4.89,16.16,16.16,0,0,0-1.67,7.79,17.39,17.39,0,0,0,1.47,7.42,13.72,13.72,0,0,0,4,5.15,16.61,16.61,0,0,0,6,3,26.54,26.54,0,0,0,7.41,1,34.63,34.63,0,0,0,10.11-1.51,19.9,19.9,0,0,0,8.6-5.27,14.92,14.92,0,0,0,.38,2.75c.69,2.62,3.93,2.62,3.93,2.62h8c3.87,0,3-2.85,2.72-5.15a59.88,59.88,0,0,1-.43-7.21V199.6c0-2.33-.24-6.12-.52-8.43a9.14,9.14,0,0,0-1.74-3.92,15.38,15.38,0,0,0-5.8-4.78,26.3,26.3,0,0,0-7.85-2.32,65.1,65.1,0,0,0-8.49-.58,46.49,46.49,0,0,0-9.19.91,26.29,26.29,0,0,0-8.23,3.06,18.37,18.37,0,0,0-6,5.7,16.65,16.65,0,0,0-1.83,4Zm328.26,30.23a14.3,14.3,0,0,0,1.39,6.78,10,10,0,0,0,3.81,4,15.84,15.84,0,0,0,5.6,1.87c1,.17,2.14.29,3.27.37h.53c1,.06,1.92.11,2.91.11,1.44,0,4.91-.12,5-.13a4.26,4.26,0,0,0,3.91-4.2v-3.4a4.26,4.26,0,0,0-4.15-4.24h-1.32c-2.15-.07-3.65-.48-4.42-1.26s-1.29-2.57-1.29-5.15V190.72h8.34a2.84,2.84,0,0,0,2.84-2.84v-4.55a2.86,2.86,0,0,0-2.84-2.83h-8.34V168.1a4.26,4.26,0,0,0-4.24-4.24h-6.8a4.24,4.24,0,0,0-4.22,4.24ZM907.9,209a30.69,30.69,0,0,0-.7-6.55,17.47,17.47,0,0,0-2.31-5.76,12.91,12.91,0,0,0-4.14-4.08,11.54,11.54,0,0,0-6.18-1.57,11.76,11.76,0,0,0-6.29,1.57,12.48,12.48,0,0,0-4.08,4,16.73,16.73,0,0,0-2.2,5.7,33.06,33.06,0,0,0-.66,6.66,30.72,30.72,0,0,0,.71,6.56,16.75,16.75,0,0,0,2.26,5.64,12.14,12.14,0,0,0,4.14,3.92,12.31,12.31,0,0,0,16.6-3.92,16,16,0,0,0,2.21-5.64A33.31,33.31,0,0,0,907.9,209Zm15.26.43a38.41,38.41,0,0,1-1.5,10.76,27.5,27.5,0,0,1-4.57,9.13,22.16,22.16,0,0,1-18.33,8.76,21.71,21.71,0,0,1-9.51-2.1,18.68,18.68,0,0,1-2-1.13l-.2-.14a16.83,16.83,0,0,1-1.39-1c-.49-.43-.75-.71-.75-.71-1-1.13-1.91-2.13-2.44-2.69-.12-.17-.25-.31-.37-.47h-.21V252a4.25,4.25,0,0,1-4.24,4.23h-6.8a4.24,4.24,0,0,1-4.22-4.23V185.29a4.23,4.23,0,0,1,4.22-4.22h6c2.33,0,4.24,1.59,4.24,3.55v3.54h.2a16.84,16.84,0,0,1,7.11-6.55,21.7,21.7,0,0,1,9.45-2,24.27,24.27,0,0,1,11.3,2.46,23.75,23.75,0,0,1,7.84,6.56,27.66,27.66,0,0,1,4.62,9.51,42.79,42.79,0,0,1,1.55,11.31Zm19.27-.54a33.52,33.52,0,0,1,.65-6.55,16.73,16.73,0,0,1,2.2-5.7,11.74,11.74,0,0,1,10.59-5.6,12.65,12.65,0,0,1,6.51,1.57,12.13,12.13,0,0,1,4.18,4,16.52,16.52,0,0,1,2.2,5.7,32.05,32.05,0,0,1,.65,6.55,31.6,31.6,0,0,1-.65,6.51,17,17,0,0,1-2.2,5.69,11.53,11.53,0,0,1-4.18,4,13.15,13.15,0,0,1-6.51,1.5,12.73,12.73,0,0,1-6.46-1.5,11.72,11.72,0,0,1-4.13-4,17.18,17.18,0,0,1-2.2-5.69,32.74,32.74,0,0,1-.65-6.48Zm-15.26,0a33.84,33.84,0,0,0,2,12A26.12,26.12,0,0,0,935,230.1a25.49,25.49,0,0,0,9,5.86,36.14,36.14,0,0,0,23.71,0,25.09,25.09,0,0,0,9.08-5.86,26.11,26.11,0,0,0,5.81-9.2,33.84,33.84,0,0,0,2-12,34.33,34.33,0,0,0-2-12.09,25.33,25.33,0,0,0-14.89-15.16,32.31,32.31,0,0,0-11.88-2.09,31.86,31.86,0,0,0-11.83,2.1,25.43,25.43,0,0,0-14.84,15.16,34.32,34.32,0,0,0-2,12.09Zm-66,3.61a14.29,14.29,0,0,0-4-4.44,21.68,21.68,0,0,0-5.68-2.87c-2.13-.71-4.32-1.33-6.55-1.84s-4.29-1-6.39-1.4a49.06,49.06,0,0,1-5.57-1.46,11.65,11.65,0,0,1-4-2.11,4.23,4.23,0,0,1-1.51-3.35,4.19,4.19,0,0,1,.87-2.77,5.52,5.52,0,0,1,2.11-1.56,9.45,9.45,0,0,1,2.76-.72c1-.1,2-.15,2.81-.15a15.35,15.35,0,0,1,7.14,1.56,5.79,5.79,0,0,1,2.77,3.17v.16a4.28,4.28,0,0,0,3.93,2.68h7a3.41,3.41,0,0,0,3.57-3.24,3.78,3.78,0,0,0-.09-1,13.41,13.41,0,0,0-1.86-4.41,17.59,17.59,0,0,0-5.59-5.47,23.48,23.48,0,0,0-7.62-2.92,44.42,44.42,0,0,0-8.83-.86,48.86,48.86,0,0,0-8.87.81,24,24,0,0,0-7.79,2.82,15.53,15.53,0,0,0-5.58,5.46,16.79,16.79,0,0,0-2.11,8.88,11.94,11.94,0,0,0,1.51,6.21,13.12,13.12,0,0,0,4,4.22,21.41,21.41,0,0,0,5.69,2.71c2.12.69,4.3,1.28,6.54,1.79a93.46,93.46,0,0,1,12.83,3.46c3.06,1.16,4.6,2.89,4.6,5.19a5.69,5.69,0,0,1-1,3.42,7.13,7.13,0,0,1-2.44,2.16,11.38,11.38,0,0,1-3.24,1.19,15.63,15.63,0,0,1-3.41.38,17.93,17.93,0,0,1-4.38-.54,10.12,10.12,0,0,1-3.74-1.68,9,9,0,0,1-2.65-2.92c-.84-1.32-.87-3.92-4.61-4.27H815.1a3.59,3.59,0,0,0-3.7,3.47,3.64,3.64,0,0,0,.05.74,14.9,14.9,0,0,0,1.94,5.15,18.69,18.69,0,0,0,6,6,25,25,0,0,0,8.28,3.24,46.14,46.14,0,0,0,9.52,1,48.32,48.32,0,0,0,9.37-.92,23.81,23.81,0,0,0,8.17-3.19,17,17,0,0,0,8-15.27,13.17,13.17,0,0,0-1.55-6.56ZM806.81,193a18.05,18.05,0,0,0-3.17-7.21,15,15,0,0,0-6.18-4.62,26.1,26.1,0,0,0-10.05-1.66,21.84,21.84,0,0,0-9.46,2.2,17.61,17.61,0,0,0-7.53,7h-.32v-3.87a4.08,4.08,0,0,0-4.23-3.87h-6a4.27,4.27,0,0,0-4.24,4.23v47.11a4.26,4.26,0,0,0,4.24,4.24h6.8a4.26,4.26,0,0,0,4.24-4.24v-24.9c0-5.24.81-9.1,2.41-11.61.12-.21.25-.4.37-.58q2.8-3.72,9-3.72c3.65,0,6.2,1.14,7.63,3.4s2.15,5.67,2.15,10.26v27.15a4.25,4.25,0,0,0,4.23,4.24h6.81a4.24,4.24,0,0,0,4.22-4.24V206.66c0-10.06-.73-13-.91-13.63ZM676.68,211.57a31.72,31.72,0,0,1,.75-7,15.45,15.45,0,0,1,2.53-5.64,12.44,12.44,0,0,1,4.68-3.83h0a16.36,16.36,0,0,1,7.1-1.4H693a4.25,4.25,0,0,0,4.23-4.23v-5.73a4.17,4.17,0,0,0-.26-1.44,4.25,4.25,0,0,0-3.69-2.77h-.19a18.84,18.84,0,0,0-3.35.43c-.77.21-1.43.41-1.43.41a21.39,21.39,0,0,0-5,2.42,19.09,19.09,0,0,0-7.1,8.54H676v-6a4.25,4.25,0,0,0-4.3-4.2h-6.05a4.25,4.25,0,0,0-4.23,4.24v47.08a4.25,4.25,0,0,0,4.23,4.24h6.8a4.25,4.25,0,0,0,4.23-4.24Zm327.5,0a30.57,30.57,0,0,1,.75-7,15.26,15.26,0,0,1,2.53-5.65,12.38,12.38,0,0,1,4.67-3.82h0a16.36,16.36,0,0,1,7.1-1.4h1.23a4.25,4.25,0,0,0,4.24-4.23v-5.73a4,4,0,0,0-.27-1.44,4.22,4.22,0,0,0-3.69-2.77h-.19a18.84,18.84,0,0,0-3.35.43l-1.43.41a21,21,0,0,0-5,2.42,19.47,19.47,0,0,0-4.19,3.76,18.68,18.68,0,0,0-2.9,4.78h-.2v-6.07a4.23,4.23,0,0,0-4.28-4.16h-6.05a4.25,4.25,0,0,0-4.23,4.23v47.09a4.25,4.25,0,0,0,4.23,4.24h6.8a4.25,4.25,0,0,0,4.23-4.24ZM670.65,164.1v5.72a4.25,4.25,0,0,1-4.23,4.24H647.65v58.32a4.25,4.25,0,0,1-4.23,4.24H635a4.25,4.25,0,0,1-4.23-4.24V174.1H612a4.25,4.25,0,0,1-4.23-4.24V164.1a4.25,4.25,0,0,1,4.23-4.24h54.43A4.26,4.26,0,0,1,670.65,164.1Z" style="fill: #898a89"/>
    </g>
    <path d="M351.19,224.25a1.58,1.58,0,0,0-.48,1.14h0A1.6,1.6,0,0,0,352.3,227a1.56,1.56,0,0,0,.79-.21l.13-.11c22-19.76,58-47.32,105.17-45,18.31.91,34.91,6.69,50,15.35,15.59,8.91,44.86,38.48,44.86,38.48a26.3,26.3,0,0,0,18.63,7.93,32.06,32.06,0,0,0,7.78-1.24c1-.34,1.52-.54,1.52-.54a20.61,20.61,0,0,0,12.3-21.89c-.73-6.17-3.79-12.42-9.57-18-1.27-1.23-43.23-48.65-123.18-41.22-52.46,7.16-89,39.49-109.58,63.65" style="fill: #ea882d"/>
    <path d="M353.85,225.73a1.59,1.59,0,0,1-3.14-.32v-.2c.88-12.09,21.8-125.78,44.35,16a2.28,2.28,0,0,0,.05.47,2.13,2.13,0,0,1-.09.71,1.47,1.47,0,0,1-1.82,1h0A1.56,1.56,0,0,1,392,242.1s-11-54.32-23.13-53.72c-5.19.37-8.95,9.84-14.92,37.11v.23" style="fill: #009f56"/>
    <path d="M597.13,208.4C595.62,202,563.13,56.9,485.92,76c-17.61,4.34-31.22,19.57-42.3,34.33C413.78,150.1,396.17,225,392,241.39a1.52,1.52,0,0,0,.93,1.94l.25.06a1.47,1.47,0,0,0,1.84-1v0c2.29-8.79,8.62-30.19,11.66-38.64,9.91-28.5,39.5-80.77,71.61-80.47,42.38.41,62.72,78.91,68.48,100.79a26.13,26.13,0,0,0,51.39-6.57,43.14,43.14,0,0,0-1-9.06" style="fill: #0067a5"/>
    <path d="M591.22,217.24a19.46,19.46,0,1,1-19.37-19.55h0a19.45,19.45,0,0,1,19.36,19.54h0" style="fill: #00a9dc"/>
  </g>
</svg>
